<?xml version="1.0" encoding="UTF-8"?>
<svg version="1.1" xmlns="http://www.w3.org/2000/svg" width="1024" height="1024">
<path d="M0 0 C337.92 0 675.84 0 1024 0 C1024 337.92 1024 675.84 1024 1024 C686.08 1024 348.16 1024 0 1024 C0 686.08 0 348.16 0 0 Z " fill="#FBFBFB" transform="translate(0,0)"/>
<path d="M0 0 C7.44488219 3.16295596 14.01040649 9.49763381 17.34375 16.84765625 C19.67949366 24.04530113 20.41930595 30.39156415 20.375 37.9375 C20.36654053 39.46141357 20.36654053 39.46141357 20.35791016 41.01611328 C20.21070807 50.29567437 19.02988341 59.0118117 17.0625 68.0625 C16.87977539 68.95001953 16.69705078 69.83753906 16.50878906 70.75195312 C0.31772196 148.5435169 -42.05255533 217.94016451 -93.45361328 277.34033203 C-94.95532889 279.08319184 -96.44594364 280.8349685 -97.93359375 282.58984375 C-103.41611793 289.04846385 -109.00141193 295.37938067 -114.77807617 301.5769043 C-117.48988371 304.48662116 -120.15389564 307.42416459 -122.75 310.4375 C-125.40262289 313.50760591 -128.2105258 316.35939759 -131.10644531 319.19897461 C-132.82606607 320.94908998 -134.41664102 322.75119547 -136.00390625 324.62109375 C-140.55825749 329.85721246 -145.45942659 334.73038852 -150.375 339.625 C-151.27798828 340.53185547 -152.18097656 341.43871094 -153.11132812 342.37304688 C-158.22394077 347.4782553 -163.41524456 352.40347723 -168.9375 357.0625 C-169.56229248 357.59399658 -170.18708496 358.12549316 -170.83081055 358.6730957 C-188.07254688 373.22809656 -207.09414526 388.06560026 -230.9375 386.0625 C-240.16642548 384.71610504 -247.10873362 380.94853859 -254.9375 376.0625 C-260.06009806 373.05023721 -263.80909281 371.25308773 -269.9375 372.0625 C-274.08210125 374.16206774 -277.02271436 376.93665341 -280.25 380.25 C-281.57451172 381.60158203 -281.57451172 381.60158203 -282.92578125 382.98046875 C-283.58964844 383.66753906 -284.25351562 384.35460937 -284.9375 385.0625 C-279.81613255 391.50079051 -273.82366313 396.88389485 -267.75683594 402.40039062 C-264.69074159 405.20151386 -261.6582815 408.03844176 -258.625 410.875 C-258.00036865 411.45854248 -257.3757373 412.04208496 -256.73217773 412.64331055 C-247.99688743 420.8064154 -239.26781503 428.97631738 -230.5703125 437.1796875 C-223.36398042 443.97596824 -216.14068873 450.74812993 -208.82421875 457.42578125 C-205.70648744 460.27350606 -202.60151848 463.13464711 -199.5 466 C-198.68934082 466.74878418 -198.68934082 466.74878418 -197.86230469 467.51269531 C-196.76768522 468.52386553 -195.67312157 469.53509617 -194.57861328 470.54638672 C-191.86572414 473.05264104 -189.15155141 475.55750446 -186.4375 478.0625 C-185.35416043 479.06249324 -184.27082709 480.06249324 -183.1875 481.0625 C-182.383125 481.805 -182.383125 481.805 -181.5625 482.5625 C-176.6875 487.0625 -176.6875 487.0625 -175.06176758 488.56323242 C-173.98095056 489.56087218 -172.90005891 490.55843108 -171.8190918 491.5559082 C-169.0716339 494.09135428 -166.32558099 496.62829382 -163.58203125 499.16796875 C-158.768591 503.62142048 -153.95093831 508.06618575 -149.0625 512.4375 C-144.75528098 516.29429088 -140.53067761 520.23405724 -136.3125 524.1875 C-130.69831268 529.45592272 -130.69831268 529.45592272 -124.9375 534.5625 C-120.40865266 538.46124684 -116.07887912 542.57289801 -111.71801758 546.65698242 C-104.25830894 553.64194018 -96.74117087 560.56053133 -89.125 567.375 C-84.8431207 571.21559062 -80.63584906 575.13124273 -76.4375 579.0625 C-70.66562264 584.46644892 -64.83904449 589.80003986 -58.9375 595.0625 C-53.17243864 600.21159487 -47.46652684 605.41705098 -41.8125 610.6875 C-37.61732954 614.59776168 -33.39299098 618.45208702 -29.05078125 622.19921875 C-25.59861605 625.24299472 -22.23774047 628.38538946 -18.86181641 631.51318359 C-13.9306785 636.07873468 -8.94477278 640.58058043 -3.9375 645.0625 C-0.59592593 648.05348269 2.73719619 651.05343546 6.0625 654.0625 C6.58811523 654.53623047 7.11373047 655.00996094 7.65527344 655.49804688 C21.80737622 668.27687763 33.15090121 680.35538408 34.19140625 700.56640625 C34.53676181 716.75207003 30.09066792 729.23224278 19.171875 741.12109375 C9.51297473 750.57723085 -3.36237291 756.34462013 -16.81420898 756.30688477 C-35.85339285 755.9598104 -49.90613182 748.16812099 -62.9375 735.0625 C-63.73929688 734.29679688 -64.54109375 733.53109375 -65.3671875 732.7421875 C-70.14514587 728.12955641 -74.33232349 723.2070768 -78.48046875 718.02734375 C-82.196918 713.54278893 -86.18065334 709.32006553 -90.15234375 705.0625 C-92.91346347 702.10105832 -95.58804651 699.07264362 -98.23828125 696.01171875 C-100.23985758 693.71565763 -102.27385694 691.45070959 -104.3125 689.1875 C-105.07304688 688.34316406 -105.83359375 687.49882813 -106.6171875 686.62890625 C-108.13915087 684.94552252 -109.66506626 683.26570165 -111.1953125 681.58984375 C-114.96774197 677.44280021 -118.62169744 673.2525093 -122.125 668.875 C-127.03154731 662.80433338 -132.36950617 657.17181085 -137.71875 651.4921875 C-141.66537672 647.30002293 -145.45401527 642.99352121 -149.17578125 638.60107422 C-155.43685787 631.21344473 -161.80293435 623.96947059 -168.42333984 616.90087891 C-171.77599689 613.3207165 -175.06014099 609.69765846 -178.265625 605.984375 C-180.29508073 603.65144926 -182.365147 601.35738755 -184.4375 599.0625 C-189.23657792 593.73915307 -193.9782795 588.37386661 -198.6171875 582.91015625 C-204.21191739 576.32931821 -209.89485112 569.86484102 -215.78125 563.54296875 C-218.99719439 560.08880626 -222.14267955 556.58814408 -225.23046875 553.01953125 C-227.27383431 550.6769085 -229.35430859 548.36976578 -231.4375 546.0625 C-234.70140848 542.44573655 -237.92540949 538.79860392 -241.125 535.125 C-243.20961164 532.75285571 -245.32178644 530.40693935 -247.4375 528.0625 C-250.70140848 524.44573655 -253.92540949 520.79860392 -257.125 517.125 C-259.20961164 514.75285571 -261.32178644 512.40693935 -263.4375 510.0625 C-268.22550179 504.7514392 -272.95937651 499.40118649 -277.58203125 493.9453125 C-283.37958981 487.11496693 -289.29872114 480.44012018 -295.42333984 473.90087891 C-298.77599689 470.3207165 -302.06014099 466.69765846 -305.265625 462.984375 C-307.29508073 460.65144926 -309.365147 458.35738755 -311.4375 456.0625 C-314.12733431 453.08187279 -316.80060364 450.09004767 -319.4375 447.0625 C-322.19494442 443.90467723 -324.96395145 440.75763833 -327.75 437.625 C-328.87341797 436.35849609 -328.87341797 436.35849609 -330.01953125 435.06640625 C-331.78168571 433.00001766 -331.78168571 433.00001766 -333.9375 432.0625 C-334.26041016 432.86494141 -334.26041016 432.86494141 -334.58984375 433.68359375 C-336.43000186 436.93187285 -338.9359149 439.44670882 -341.5 442.125 C-345.26205143 446.11987104 -348.89197764 450.14091166 -352.3125 454.4375 C-356.54600261 459.71783234 -361.13355633 464.59807625 -365.78027344 469.51074219 C-369.95833509 473.95092128 -373.85016691 478.54388899 -377.65625 483.30859375 C-381.31220792 487.7220361 -385.24405445 491.87330045 -389.15234375 496.0625 C-391.91416341 499.0246924 -394.59052434 502.0527134 -397.23828125 505.1171875 C-399.23156428 507.3991529 -401.27243027 509.63478574 -403.3125 511.875 C-406.38496773 515.27333552 -409.32192622 518.73840523 -412.1875 522.3125 C-416.84808865 528.07691228 -421.87529281 533.45101953 -426.94140625 538.85546875 C-431.31866714 543.5264332 -435.4889289 548.35997541 -439.63671875 553.234375 C-445.46768213 560.07768479 -451.39158334 566.80233217 -457.4921875 573.40625 C-461.64138665 577.91336728 -465.64450804 582.53769731 -469.609375 587.20703125 C-474.67400232 593.16172922 -479.78463776 599.04009803 -485.125 604.75 C-489.49824375 609.42624957 -493.585359 614.25403441 -497.59375 619.25 C-500.75619389 623.04493267 -504.12428459 626.62693079 -507.50048828 630.23095703 C-510.57743614 633.53445262 -513.4941507 636.90670553 -516.3125 640.4375 C-520.54728848 645.71943617 -525.13621525 650.60126878 -529.78466797 655.51513672 C-533.15206839 659.0933973 -536.37117257 662.7181492 -539.4375 666.5625 C-543.06460928 671.10992059 -546.94349916 675.34048167 -550.9375 679.5625 C-555.72645592 684.62514675 -560.23916225 689.79367048 -564.58984375 695.2421875 C-568.5141481 699.95657642 -572.74776862 704.38155716 -576.94140625 708.85546875 C-581.32509496 713.53329231 -585.50997254 718.36468754 -589.63671875 723.26953125 C-602.1113129 738.05122404 -613.91848948 751.73082676 -633.9375 755.0625 C-652.50979304 756.52983692 -667.09144075 750.63411587 -681.37890625 739.08984375 C-690.94052081 730.25396843 -696.33211106 717.28227575 -697.17578125 704.43359375 C-697.48804004 687.88387793 -692.82260768 675.04448858 -681.23927307 662.87652588 C-679.44127498 661.06408961 -677.63246661 659.26233277 -675.81469727 657.46972656 C-674.81102776 656.46554681 -673.80823552 655.4604896 -672.8062439 654.45463562 C-670.11062733 651.75365134 -667.40289162 649.06513635 -664.69249845 646.37899113 C-661.84256693 643.5505381 -659.00375898 640.71096039 -656.16355896 637.8727417 C-651.39649486 633.11210165 -646.62212879 628.35889304 -641.8425293 623.61083984 C-635.72622863 617.5348576 -629.62143863 611.44744879 -623.52046299 605.35608292 C-618.24888776 600.09283834 -612.97287696 594.83404676 -607.69573092 589.57638836 C-606.56928242 588.45397559 -605.44298073 587.33141544 -604.31682706 586.20870686 C-601.10530494 583.00703498 -597.89142116 579.8077737 -594.67365646 576.61237526 C-593.24475104 575.19240483 -591.8181373 573.77012942 -590.39161682 572.34776306 C-589.09030823 571.05718742 -589.09030823 571.05718742 -587.76271057 569.74053955 C-587.01961923 569.00172169 -586.27652788 568.26290382 -585.51091862 567.50169754 C-583.40554915 565.50613724 -581.26764553 563.59845158 -579.07511902 561.70138073 C-575.19957368 558.33109068 -571.53427894 554.79977256 -567.91038513 551.16236877 C-567.25103676 550.5045804 -566.5916884 549.84679202 -565.91235977 549.16907066 C-563.72623129 546.9868981 -561.54365569 544.80120805 -559.36108398 542.61547852 C-557.78528156 541.04103253 -556.20926678 539.46679905 -554.63305664 537.89276123 C-550.36846174 533.63271174 -546.10702 529.36952126 -541.84628558 525.10561109 C-537.37876528 520.63555223 -532.90879788 516.16794148 -528.43922424 511.69993591 C-520.45483842 503.7174837 -512.47297255 495.73251767 -504.49210054 487.74655288 C-497.26803379 480.51801889 -490.04134934 473.29211063 -482.81274414 466.06811523 C-474.40156687 457.66229946 -465.99208442 449.25479373 -457.58506256 440.84482139 C-453.14095207 436.39915497 -448.69617605 431.95415959 -444.24963188 427.5109272 C-440.06866742 423.33285949 -435.89017233 419.15233753 -431.71353912 414.96994019 C-430.18380016 413.4388833 -428.65321763 411.90866871 -427.12171364 410.37937737 C-425.02468952 408.2851029 -422.93079697 406.1877447 -420.83763123 404.08961487 C-420.2370354 403.49124976 -419.63643957 402.89288466 -419.01764387 402.27638727 C-415.33917634 398.58108577 -411.85853116 394.75773718 -408.45616966 390.80654186 C-406.56642495 388.63635701 -404.57753058 386.58904197 -402.53515625 384.5625 C-401.79072266 383.82128906 -401.04628906 383.08007812 -400.27929688 382.31640625 C-399.52712891 381.57261719 -398.77496094 380.82882812 -398 380.0625 C-397.22076172 379.28777344 -396.44152344 378.51304687 -395.63867188 377.71484375 C-393.7405758 375.82839243 -391.84016851 373.94433755 -389.9375 372.0625 C-394.89337114 364.89230346 -400.78579156 358.90824924 -406.94921875 352.79003906 C-408.67681525 351.07311872 -410.39351252 349.34582559 -412.109375 347.6171875 C-427.69165254 331.58222788 -427.69165254 331.58222788 -448.66162109 325.65600586 C-450.67836044 325.67659076 -452.69497158 325.71782305 -454.7109375 325.77734375 C-455.79653961 325.79011856 -456.88214172 325.80289337 -458.00064087 325.8160553 C-461.4385543 325.85791028 -464.8751341 325.92623159 -468.3125 326 C-492.19722555 326.47708762 -510.19582412 325.58588951 -528.9375 309.0625 C-529.67299072 308.41740479 -529.67299072 308.41740479 -530.42333984 307.75927734 C-536.06286525 302.78821873 -541.45580997 297.72635875 -546.296875 291.95703125 C-548.08825536 289.88841345 -549.98604583 287.98043683 -551.9375 286.0625 C-554.53732183 283.50259866 -557.00018398 280.8947046 -559.375 278.125 C-562.57829858 274.39633127 -566.00410506 270.95310703 -569.53125 267.53125 C-572.16655513 264.82749539 -574.62510729 262.00543788 -577.09912109 259.15478516 C-579.99001216 255.86462096 -582.99294283 252.68372983 -586 249.5 C-587.31400836 248.10436085 -588.62780516 246.70852249 -589.94140625 245.3125 C-590.60285645 244.60996094 -591.26430664 243.90742188 -591.94580078 243.18359375 C-593.89565041 241.10706843 -595.83805771 239.02389054 -597.77734375 236.9375 C-598.39279053 236.27564697 -599.0082373 235.61379395 -599.64233398 234.93188477 C-600.79775179 233.68847105 -601.95228333 232.4442329 -603.10571289 231.19897461 C-605.89429471 228.20104868 -608.72325602 225.25995853 -611.62890625 222.375 C-613.98405814 220.03581855 -616.23491197 217.66531229 -618.375 215.125 C-620.79367779 212.31673653 -623.29649683 209.66279407 -625.9375 207.0625 C-628.53732183 204.50259866 -631.00018398 201.8947046 -633.375 199.125 C-635.94415271 196.13448284 -638.63067256 193.33133316 -641.4375 190.5625 C-644.20310408 187.83420593 -646.85037031 185.07733166 -649.375 182.125 C-652.88099685 178.03331459 -656.69211891 174.29283117 -660.5234375 170.5078125 C-663.22501294 167.77126521 -665.72828735 164.91270634 -668.2265625 161.9921875 C-670.68323119 159.22142418 -673.33109977 156.659571 -675.96875 154.0625 C-678.49175459 151.49944772 -680.81312817 148.78904176 -683.15625 146.0625 C-685.0117521 143.97912922 -686.94973101 142.01968793 -688.9375 140.0625 C-692.81888123 136.23367132 -696.40297348 132.21059958 -699.9375 128.0625 C-700.41316406 127.52625 -700.88882813 126.99 -701.37890625 126.4375 C-705.83012487 121.33520761 -708.54062406 116.85310526 -708.21484375 110.01171875 C-707.54473303 105.30206735 -705.4400397 102.18919616 -701.875 99.1875 C-697.49269131 96.33067851 -692.99825647 96.0096884 -687.9375 97.0625 C-680.75512854 100.03564346 -676.10966289 104.3358319 -670.69506836 109.83496094 C-669.8078157 110.72002319 -668.92056305 111.60508545 -668.00642395 112.51696777 C-665.58997703 114.93150747 -663.18274037 117.3545635 -660.77939296 119.78209972 C-658.25118526 122.33172759 -655.7119105 124.87028877 -653.17396545 127.41021729 C-648.91326106 131.67735612 -644.66000738 135.95180155 -640.41186523 140.23144531 C-634.97809335 145.70546044 -629.53296869 151.16802891 -624.08385372 156.6267662 C-619.37683154 161.34212736 -614.67426067 166.06192042 -609.97281575 170.78284168 C-608.96911809 171.79057372 -607.96527381 172.79815974 -606.96128154 173.80559826 C-603.65402089 177.12424237 -600.35122621 180.4472778 -597.05053711 183.77246094 C-596.22800446 184.5976825 -595.4054718 185.42290405 -594.55801392 186.27313232 C-590.36968255 190.50027514 -586.34257066 194.80681508 -582.45824718 199.3147831 C-580.51225035 201.55121765 -578.46851418 203.67262823 -576.38256836 205.77856445 C-575.56159164 206.60914871 -574.74061493 207.43973297 -573.89476013 208.29548645 C-573.03101273 209.16348373 -572.16726532 210.03148102 -571.27734375 210.92578125 C-570.36924454 211.83958054 -569.46114532 212.75337982 -568.52552795 213.69487 C-566.61714439 215.61366816 -564.70651728 217.53020233 -562.79467773 219.44555664 C-560.35480905 221.89094192 -557.92438677 224.34549942 -555.4959631 226.80224323 C-553.15884627 229.16250675 -550.81113849 231.51214161 -548.46484375 233.86328125 C-547.59907211 234.74139969 -546.73330048 235.61951813 -545.84129333 236.52424622 C-539.31340355 243.15666214 -539.31340355 243.15666214 -530.8125 246.4609375 C-526.15340007 246.40269875 -522.93042716 245.69420199 -518.9375 243.0625 C-515.32447612 239.15652823 -513.79892787 236.05022312 -513.625 230.75 C-513.56892578 229.64205078 -513.56892578 229.64205078 -513.51171875 228.51171875 C-515.53912315 216.84949345 -532.56162761 204.30641342 -540.81313324 196.11170197 C-542.72551209 194.21235338 -544.63451516 192.30966471 -546.54278564 190.40618896 C-550.58817276 186.37209197 -554.63753069 182.34199606 -558.6875 178.3125 C-563.40186148 173.62188001 -568.11450409 168.92955808 -572.82294464 164.23299408 C-574.69025903 162.37208953 -576.5605907 160.51425619 -578.43109131 158.65655518 C-587.80709732 149.32054026 -587.80709732 149.32054026 -591.44018555 145.05541992 C-596.04904131 139.64938248 -601.18525933 134.73865215 -606.23558235 129.75038338 C-608.1354663 127.8727898 -610.03113112 125.99102917 -611.92564392 124.10801697 C-617.30721999 118.75978522 -622.69298382 113.41582788 -628.08911133 108.08227539 C-631.40402981 104.80520595 -634.71142064 101.52069483 -638.0142498 98.23144341 C-639.2652596 96.9884305 -640.51902859 95.74818758 -641.77571297 94.51091194 C-657.91273786 78.61892825 -657.91273786 78.61892825 -659.62890625 70.98828125 C-659.33191219 64.96740161 -658.98593132 60.11926037 -654.5078125 55.62890625 C-651.00268729 52.55102267 -648.3949007 51.20538242 -643.75 50.75 C-635.96652111 51.38799007 -631.49920922 55.25256397 -625.9981842 60.40536499 C-625.14584232 61.19862436 -625.14584232 61.19862436 -624.27628142 62.00790918 C-617.9063754 67.97226262 -611.74322241 74.13892517 -605.59155273 80.32666016 C-604.31558874 81.60619176 -603.03938198 82.88548132 -601.76295471 84.16455078 C-599.04382494 86.8901644 -596.3262184 89.61728397 -593.60980034 92.34560013 C-589.3136789 96.66019076 -585.01305819 100.97027824 -580.71168518 105.27963257 C-568.49140243 117.52394203 -556.27721154 129.77431814 -544.06713867 142.02880859 C-537.30157498 148.81890478 -530.53243325 155.60541351 -523.75942379 162.38808286 C-519.48212091 166.67192395 -515.20936058 170.96022906 -510.93991935 175.25190473 C-508.2912199 177.91231697 -505.63836536 180.56855497 -502.98430443 183.22361755 C-501.75382618 184.45624597 -500.52507341 185.69059961 -499.29816818 186.92678452 C-497.62546951 188.61164632 -495.94673537 190.29025514 -494.26634216 191.96743774 C-493.78103781 192.4592499 -493.29573345 192.95106206 -492.7957229 193.45777762 C-488.73436231 197.48895173 -485.80548869 199.3481636 -480.0625 199.375 C-475.65643312 199.27766421 -472.64839866 198.59677225 -468.9375 196.0625 C-465.48391194 192.37073346 -464.78984076 188.63272268 -464.625 183.6875 C-464.58761719 182.95789063 -464.55023438 182.22828125 -464.51171875 181.4765625 C-465.56329065 175.51443924 -470.5899688 171.14294875 -474.76953125 167.0703125 C-475.32436691 166.52067841 -475.87920258 165.97104431 -476.45085144 165.40475464 C-478.21249109 163.66078689 -479.98069436 161.92368706 -481.75 160.1875 C-483.50774034 158.45762953 -485.26389213 156.72622045 -487.01701355 154.9916687 C-488.10277559 153.91789586 -489.1911927 152.84679747 -490.28291321 151.77908325 C-492.97792781 149.1187776 -495.53056823 146.39883457 -497.98425293 143.51376343 C-502.51658574 138.31492845 -507.40736436 133.49132833 -512.30737305 128.64257812 C-513.33663562 127.6201608 -514.36564036 126.59748385 -515.39440918 125.5745697 C-517.59528208 123.38693815 -519.79758069 121.20075584 -522.00092125 119.01560974 C-525.48899104 115.55557454 -528.97147818 112.08995674 -532.45283508 108.62316895 C-533.64884917 107.43229736 -534.84487031 106.24143285 -536.04089832 105.05057526 C-536.63942698 104.45463216 -537.23795564 103.85868906 -537.85462153 103.24468708 C-545.94963707 95.18561917 -554.04943495 87.13140301 -562.15942383 79.08740234 C-567.64620578 73.64517493 -573.12578745 68.19580728 -578.59737808 62.73830557 C-581.48720661 59.85652804 -584.38060388 56.97855008 -587.28296471 54.10939026 C-590.01094789 51.41256623 -592.72939375 48.70648168 -595.44097137 45.99316597 C-596.43395229 45.00286939 -597.43034246 44.01597697 -598.43046761 43.03289604 C-604.34806184 37.21176997 -609.71268083 31.91641515 -611.46875 23.5234375 C-611.38967319 18.24506035 -610.49737183 15.19964834 -606.9375 11.0625 C-603.54810029 8.07660026 -601.34323827 6.20307383 -596.8125 5.75 C-582.25912436 6.92365933 -570.37833628 23.51338783 -560.7878418 33.24829102 C-557.35298589 36.72193856 -553.92603198 40.13161864 -550.203125 43.296875 C-543.29221457 49.23277373 -537.03780247 55.90979376 -530.63720703 62.38330078 C-522.05608875 71.06152408 -522.05608875 71.06152408 -512.99414062 79.22851562 C-507.53308475 84.09834608 -502.49459848 89.45929098 -497.35546875 94.66503906 C-492.02391964 100.05942901 -486.69585025 105.37381477 -480.921875 110.30078125 C-475.82273671 114.82777213 -471.14235758 119.82423549 -466.359375 124.6796875 C-461.9933967 129.08584351 -457.57546861 133.3184486 -452.8671875 137.35546875 C-448.68509479 141.0550123 -444.84535574 145.11738145 -440.9375 149.1015625 C-437.04200086 153.04271202 -433.0419132 156.76291021 -428.84375 160.37890625 C-425.90520181 162.97422237 -423.17595561 165.75934648 -420.4375 168.5625 C-416.95502021 172.09354226 -413.48462874 175.5528176 -409.6875 178.75 C-396.20843207 190.35223569 -388.12389379 204.88597524 -386.72607422 222.76708984 C-386.19509897 233.95182654 -386.91239153 244.43555081 -389.25 255.359375 C-391.30205825 266.41250693 -390.82063782 276.34408481 -384.9375 286.0625 C-383.20671671 288.12853601 -381.47725543 290.08699935 -379.625 292.03515625 C-378.84277069 292.86976631 -378.84277069 292.86976631 -378.04473877 293.72123718 C-371.73353283 300.41138344 -365.21353761 306.89563985 -358.6875 313.375 C-357.44116801 314.61629729 -356.19507318 315.85783276 -354.94921875 317.09960938 C-351.94802396 320.08997679 -348.94369248 323.07715712 -345.9375 326.0625 C-340.6627737 321.65376637 -335.743715 317.01077294 -330.89172363 312.14370728 C-330.11072312 311.36426675 -329.3297226 310.58482623 -328.52505541 309.7817663 C-325.92122707 307.18191125 -323.32096945 304.57851491 -320.72070312 301.97509766 C-318.84948551 300.10523572 -316.97807429 298.23556937 -315.10643005 296.36613464 C-310.55826551 291.82240672 -306.01279645 287.27599159 -301.46830165 282.7285936 C-297.77280791 279.03083726 -294.07633415 275.33406325 -290.37916565 271.63798141 C-289.85204114 271.11101014 -289.32491664 270.58403887 -288.78181866 270.04109877 C-287.71080474 268.97040459 -286.63978859 267.89971265 -285.56877023 266.82902293 C-275.53564468 256.79874607 -265.50558137 246.76541156 -255.47656947 236.73102181 C-246.88178425 228.1317704 -238.28438245 219.53514233 -229.68505859 210.94042969 C-219.68699758 200.94772746 -209.6905702 190.9533956 -199.69672155 180.95648038 C-198.62976124 179.88920154 -197.56279885 178.82192478 -196.49583435 177.75465012 C-195.70849161 176.96707596 -195.70849161 176.96707596 -194.90524295 176.16359121 C-191.2164416 172.47392852 -187.52648544 168.78542319 -183.83607483 165.09737015 C-179.33442415 160.59853221 -174.8345762 156.09790027 -170.33698714 151.59500171 C-168.04471687 149.30011409 -165.75140386 147.0062866 -163.45643425 144.71409798 C-160.96305654 142.22346272 -158.47279525 139.72975153 -155.98327637 137.23526001 C-155.26526997 136.51948434 -154.54726357 135.80370866 -153.80749941 135.06624281 C-149.87146149 131.11499753 -146.12715805 127.05671689 -142.48323953 122.8348546 C-140.59325061 120.6677815 -138.61340333 118.61255267 -136.58094788 116.57896423 C-135.79195602 115.78715256 -135.00296417 114.99534088 -134.19006348 114.17953491 C-133.34882935 113.34032501 -132.50759521 112.50111511 -131.64086914 111.63647461 C-130.28335793 110.27633492 -130.28335793 110.27633492 -128.89842224 108.88871765 C-126.4378884 106.42366293 -123.97424775 103.96173619 -121.50986028 101.50053477 C-118.91761839 98.91084432 -116.32783959 96.31869245 -113.73765564 93.72694397 C-109.38948041 89.37695512 -105.03921414 85.02906583 -100.68774414 80.68237305 C-95.67407243 75.6741424 -90.66401305 70.66231978 -85.65581423 65.64861673 C-81.33726328 61.32551159 -77.01674639 57.00437847 -72.6946134 52.68485457 C-70.12130956 50.11310084 -67.54866483 47.54069753 -64.97780037 44.96650505 C-62.10924678 42.09449688 -59.23658155 39.22663482 -56.36352539 36.35913086 C-55.10471054 35.09727966 -55.10471054 35.09727966 -53.82046509 33.80993652 C-49.56304112 29.56767422 -45.23861461 25.47174719 -40.6723547 21.56255436 C-38.44202886 19.63408738 -36.30884986 17.61288071 -34.16918945 15.58520508 C-13.39039934 -4.06348167 -13.39039934 -4.06348167 0 0 Z " fill="#000000" transform="translate(833.9375,121.9375)"/>
</svg>
